<svg xmlns="http://www.w3.org/2000/svg" viewBox="0 0 585 900" fill="none">
  <defs>
    <linearGradient id="g1" x1="293" y1="0" x2="293" y2="450" gradientUnits="userSpaceOnUse">
      <stop offset="0%" stop-color="#4FD8C8"/>
      <stop offset="100%" stop-color="#2B9FD4"/>
    </linearGradient>
    <linearGradient id="g2" x1="0" y1="0" x2="585" y2="900" gradientUnits="userSpaceOnUse">
      <stop offset="0%" stop-color="#3A9FD8"/>
      <stop offset="50%" stop-color="#3A7DC4"/>
      <stop offset="100%" stop-color="#7B52B8"/>
    </linearGradient>
    <linearGradient id="g3" x1="293" y1="450" x2="293" y2="900" gradientUnits="userSpaceOnUse">
      <stop offset="0%" stop-color="#6058BC"/>
      <stop offset="100%" stop-color="#7B46A8"/>
    </linearGradient>
  </defs>
  <!-- Top teal ribbon - curves from top-right downward-left -->
  <path d="M 293 30 C 430 30, 555 120, 555 235 C 555 320, 490 385, 400 410 C 340 428, 270 420, 210 395 C 160 374, 120 338, 105 295 C 85 245, 100 185, 140 148 C 185 108, 238 90, 293 30 Z" 
        fill="url(#g1)" opacity="0.95"/>
  <!-- Blue diagonal band crossing the middle -->
  <path d="M 30 80 C 80 30, 175 10, 270 60 C 220 120, 190 200, 200 280 C 175 350, 120 400, 55 390 C 10 340, 5 195, 30 80 Z" 
        fill="url(#g2)" opacity="0.88"/>
  <!-- Bottom purple ribbon -->
  <path d="M 293 870 C 155 870, 30 780, 30 665 C 30 580, 95 515, 185 490 C 245 472, 315 480, 375 505 C 425 526, 465 562, 480 605 C 500 655, 485 715, 445 752 C 400 792, 347 810, 293 870 Z" 
        fill="url(#g3)" opacity="0.95"/>
  <!-- Blue continuation lower half -->
  <path d="M 555 820 C 505 870, 410 890, 315 840 C 365 780, 395 700, 385 620 C 410 550, 465 500, 530 510 C 575 560, 580 705, 555 820 Z" 
        fill="url(#g2)" opacity="0.85"/>
</svg>
